<svg width="30" height="30" viewBox="0 0 30 30" fill="none" xmlns="http://www.w3.org/2000/svg">
    <path fill-rule="evenodd" clip-rule="evenodd" d="M21.501 0C26.5845 0 30 3.567 30 8.874V21.126C30 26.433 26.5845 30 21.4995 30H8.4975C3.414 30 0 26.433 0 21.126V8.874C0 3.567 3.414 0 8.4975 0H21.501ZM21.501 2.25H8.4975C4.7025 2.25 2.25 4.8495 2.25 8.874V21.126C2.25 25.1505 4.7025 27.75 8.4975 27.75H21.4995C25.296 27.75 27.75 25.1505 27.75 21.126V8.874C27.75 4.8495 25.296 2.25 21.501 2.25ZM12.1957 10.5939L14.997 13.395L17.7967 10.597C18.2362 10.1575 18.9473 10.1575 19.3868 10.597C19.8263 11.0366 19.8263 11.7475 19.3868 12.187L16.587 14.985L19.3898 17.7894C19.8293 18.2289 19.8293 18.9399 19.3898 19.3794C19.1707 19.5999 18.8813 19.7094 18.5947 19.7094C18.3067 19.7094 18.0187 19.5999 17.7997 19.3794L14.997 16.575L12.1987 19.375C11.9797 19.5956 11.6917 19.705 11.4037 19.705C11.1158 19.705 10.8278 19.5956 10.6088 19.375C10.1693 18.9356 10.1693 18.2246 10.6088 17.785L13.407 14.985L10.6058 12.1839C10.1663 11.7444 10.1663 11.0334 10.6058 10.5939C11.0468 10.1544 11.7577 10.1544 12.1957 10.5939Z" fill="#E84B37"></path>
</svg>
