<svg width="13" height="16" viewBox="0 0 13 16" fill="none" xmlns="http://www.w3.org/2000/svg">
    <path fill-rule="evenodd" clip-rule="evenodd" d="M12.7547 13.0392C12.7547 15.6932 9.11507 16 6.37813 16L6.18227 15.9998C4.43853 15.9956 0 15.8855 0 13.0231C0 10.4233 3.49332 10.0758 6.20942 10.0627L6.57398 10.0625C8.31761 10.0667 12.7547 10.1768 12.7547 13.0392ZM6.37813 11.2702C2.9471 11.2702 1.20783 11.8596 1.20783 13.0231C1.20783 14.1971 2.9471 14.7922 6.37813 14.7922C9.80836 14.7922 11.5468 14.2028 11.5468 13.0392C11.5468 11.8652 9.80836 11.2702 6.37813 11.2702ZM6.37813 0C8.73581 0 10.653 1.91803 10.653 4.27571C10.653 6.63338 8.73581 8.55061 6.37813 8.55061H6.35236C3.99952 8.54336 2.09357 6.62453 2.10159 4.27329C2.10159 1.91803 4.01965 0 6.37813 0ZM6.37813 1.14985C4.65416 1.14985 3.25145 2.55174 3.25145 4.27571C3.24583 5.99404 4.63805 7.39512 6.35478 7.40156L6.37813 7.97649V7.40156C8.1013 7.40156 9.50318 5.99887 9.50318 4.27571C9.50318 2.55174 8.1013 1.14985 6.37813 1.14985Z" fill="#494952"></path>
</svg>
