<svg width="15" height="16" viewBox="0 0 15 16" fill="none" xmlns="http://www.w3.org/2000/svg">
  <path fill-rule="evenodd" clip-rule="evenodd" d="M3.81348 11.4303C3.81348 11.0975 4.08332 10.8276 4.41619 10.8276H10.2183C10.5512 10.8276 10.821 11.0975 10.821 11.4303C10.821 11.7632 10.5512 12.033 10.2183 12.033H4.41619C4.08332 12.033 3.81348 11.7632 3.81348 11.4303Z" fill="#494952"></path>
  <path fill-rule="evenodd" clip-rule="evenodd" d="M3.81348 8.06601C3.81348 7.73315 4.08332 7.4633 4.41619 7.4633H10.2183C10.5512 7.4633 10.821 7.73315 10.821 8.06601C10.821 8.39888 10.5512 8.66873 10.2183 8.66873H4.41619C4.08332 8.66873 3.81348 8.39888 3.81348 8.06601Z" fill="#494952"></path>
  <path fill-rule="evenodd" clip-rule="evenodd" d="M3.81348 4.70952C3.81348 4.37665 4.08332 4.10681 4.41619 4.10681H6.63015C6.96302 4.10681 7.23286 4.37665 7.23286 4.70952C7.23286 5.04239 6.96302 5.31224 6.63015 5.31224H4.41619C4.08332 5.31224 3.81348 5.04239 3.81348 4.70952Z" fill="#494952"></path>
  <path fill-rule="evenodd" clip-rule="evenodd" d="M10.3731 0C11.6271 9.57985e-08 12.6985 0.413823 13.4559 1.19547C14.2109 1.97478 14.5977 3.06164 14.5977 4.30497V11.695C14.5977 12.9325 14.2137 14.0145 13.4649 14.7925C12.7138 15.5729 11.6509 15.9899 10.4065 15.9976L10.4028 15.9976L4.22432 16C2.97033 16 1.89851 15.5862 1.14136 14.8045C0.386496 14.0251 0 12.9383 0 11.695V4.30497C0 3.0676 0.383691 1.98577 1.13239 1.20786C1.88333 0.427631 2.94611 0.0108898 4.19036 0.00322597L4.19407 0.00320307L10.3731 0ZM10.3732 1.20542C10.3732 1.20542 10.3733 1.20542 10.3732 1.20542L4.19779 1.20863C4.19724 1.20863 4.1967 1.20863 4.19615 1.20864C3.22324 1.21498 2.49088 1.53468 2.00091 2.04377C1.50842 2.55546 1.20542 3.31633 1.20542 4.30497V11.695C1.20542 12.6891 1.51084 13.4533 2.00721 13.9658C2.50127 14.4759 3.24045 14.7945 4.22364 14.7946C4.22359 14.7946 4.2237 14.7946 4.22364 14.7946L10.3991 14.7922C10.3996 14.7922 10.4001 14.7922 10.4007 14.7922C11.3735 14.7858 12.1061 14.466 12.5964 13.9566C13.0891 13.4447 13.3923 12.6836 13.3923 11.695V4.30497C13.3923 3.31104 13.0867 2.54677 12.5901 2.03426C12.0959 1.52414 11.3564 1.20548 10.3732 1.20542Z" fill="#494952"></path>
</svg>
