<svg width="31" height="30" viewBox="0 0 31 30" fill="none" xmlns="http://www.w3.org/2000/svg">
    <path fill-rule="evenodd" clip-rule="evenodd" d="M22.001 0C27.0845 0 30.5 3.567 30.5 8.874V21.126C30.5 26.433 27.0845 30 21.9995 30H8.9975C3.914 30 0.5 26.433 0.5 21.126V8.874C0.5 3.567 3.914 0 8.9975 0H22.001ZM22.001 2.25H8.9975C5.2025 2.25 2.75 4.8495 2.75 8.874V21.126C2.75 25.1505 5.2025 27.75 8.9975 27.75H21.9995C25.796 27.75 28.25 25.1505 28.25 21.126V8.874C28.25 4.8495 25.796 2.25 22.001 2.25Z" fill="#3BB698"></path>
    <path fill-rule="evenodd" clip-rule="evenodd" d="M23.4972 9.37393C23.9853 9.86208 23.9853 10.6535 23.4972 11.1417L14.0128 20.6261C13.5246 21.1142 12.7332 21.1142 12.245 20.6261L7.50284 15.8839C7.01468 15.3957 7.01468 14.6043 7.50284 14.1161C7.99099 13.628 8.78245 13.628 9.2706 14.1161L13.1289 17.9744L21.7294 9.37393C22.2176 8.88577 23.009 8.88577 23.4972 9.37393Z" fill="#3BB698"></path>
</svg>
